<mxfile host="app.diagrams.net" modified="2024-01-20T15:23:39.570Z" agent="Mozilla/5.0 (Windows NT 10.0; Win64; x64) AppleWebKit/537.36 (KHTML, like Gecko) Chrome/120.0.0.0 Safari/537.36 OPR/106.0.0.0" etag="WZgi_zX8z8X8qhRuVMeq" version="22.1.21" type="device">
  <diagram name="Pagina-1" id="XwnCP6ZEijcdsJlgO7Of">
    <mxGraphModel dx="3700" dy="1540" grid="1" gridSize="10" guides="1" tooltips="1" connect="1" arrows="1" fold="1" page="1" pageScale="1" pageWidth="827" pageHeight="1169" math="0" shadow="0">
      <root>
        <mxCell id="0" />
        <mxCell id="1" parent="0" />
        <mxCell id="Q1W1gEMNfPW142fc3Lqc-134" value="" style="rounded=0;whiteSpace=wrap;html=1;fillColor=#e1d5e7;strokeColor=#9673a6;" vertex="1" parent="1">
          <mxGeometry x="680" y="60" width="330" height="120" as="geometry" />
        </mxCell>
        <mxCell id="Q1W1gEMNfPW142fc3Lqc-129" value="" style="rounded=0;whiteSpace=wrap;html=1;fillColor=#e1d5e7;strokeColor=#9673a6;" vertex="1" parent="1">
          <mxGeometry x="738.5" y="880" width="690" height="380" as="geometry" />
        </mxCell>
        <mxCell id="Q1W1gEMNfPW142fc3Lqc-78" value="" style="rounded=0;whiteSpace=wrap;html=1;fillColor=#e1d5e7;strokeColor=#9673a6;" vertex="1" parent="1">
          <mxGeometry x="270" y="60" width="330" height="120" as="geometry" />
        </mxCell>
        <mxCell id="Q1W1gEMNfPW142fc3Lqc-65" value="" style="rounded=0;whiteSpace=wrap;html=1;fillColor=#e1d5e7;strokeColor=#9673a6;" vertex="1" parent="1">
          <mxGeometry x="381" y="350" width="429" height="330" as="geometry" />
        </mxCell>
        <mxCell id="Q1W1gEMNfPW142fc3Lqc-64" value="" style="rounded=0;whiteSpace=wrap;html=1;fillColor=#e1d5e7;strokeColor=#9673a6;" vertex="1" parent="1">
          <mxGeometry x="-170" y="350" width="450" height="570" as="geometry" />
        </mxCell>
        <mxCell id="Q1W1gEMNfPW142fc3Lqc-6" style="edgeStyle=orthogonalEdgeStyle;rounded=0;orthogonalLoop=1;jettySize=auto;html=1;exitX=1;exitY=0.5;exitDx=0;exitDy=0;entryX=0;entryY=0.5;entryDx=0;entryDy=0;" edge="1" parent="1" source="Q1W1gEMNfPW142fc3Lqc-1" target="Q1W1gEMNfPW142fc3Lqc-2">
          <mxGeometry relative="1" as="geometry" />
        </mxCell>
        <mxCell id="Q1W1gEMNfPW142fc3Lqc-147" style="edgeStyle=orthogonalEdgeStyle;rounded=0;orthogonalLoop=1;jettySize=auto;html=1;exitX=0.5;exitY=1;exitDx=0;exitDy=0;entryX=0.25;entryY=0;entryDx=0;entryDy=0;" edge="1" parent="1" source="Q1W1gEMNfPW142fc3Lqc-1" target="Q1W1gEMNfPW142fc3Lqc-8">
          <mxGeometry relative="1" as="geometry">
            <Array as="points">
              <mxPoint x="180" y="200" />
              <mxPoint x="451" y="200" />
            </Array>
          </mxGeometry>
        </mxCell>
        <mxCell id="Q1W1gEMNfPW142fc3Lqc-1" value="Start" style="ellipse;whiteSpace=wrap;html=1;fillColor=#d5e8d4;strokeColor=#82b366;" vertex="1" parent="1">
          <mxGeometry x="120" y="80" width="120" height="80" as="geometry" />
        </mxCell>
        <mxCell id="Q1W1gEMNfPW142fc3Lqc-7" style="edgeStyle=orthogonalEdgeStyle;rounded=0;orthogonalLoop=1;jettySize=auto;html=1;exitX=1;exitY=0.5;exitDx=0;exitDy=0;entryX=0;entryY=0.5;entryDx=0;entryDy=0;" edge="1" parent="1" source="Q1W1gEMNfPW142fc3Lqc-2" target="Q1W1gEMNfPW142fc3Lqc-3">
          <mxGeometry relative="1" as="geometry" />
        </mxCell>
        <mxCell id="Q1W1gEMNfPW142fc3Lqc-2" value="Hello!" style="rounded=1;whiteSpace=wrap;html=1;fillColor=#ffe6cc;strokeColor=#d79b00;" vertex="1" parent="1">
          <mxGeometry x="293.5" y="90" width="120" height="60" as="geometry" />
        </mxCell>
        <mxCell id="Q1W1gEMNfPW142fc3Lqc-137" style="edgeStyle=orthogonalEdgeStyle;rounded=0;orthogonalLoop=1;jettySize=auto;html=1;exitX=1;exitY=0.5;exitDx=0;exitDy=0;entryX=0;entryY=0.5;entryDx=0;entryDy=0;" edge="1" parent="1" source="Q1W1gEMNfPW142fc3Lqc-3" target="Q1W1gEMNfPW142fc3Lqc-131">
          <mxGeometry relative="1" as="geometry" />
        </mxCell>
        <mxCell id="Q1W1gEMNfPW142fc3Lqc-144" style="edgeStyle=orthogonalEdgeStyle;rounded=0;orthogonalLoop=1;jettySize=auto;html=1;exitX=0.5;exitY=1;exitDx=0;exitDy=0;entryX=0.75;entryY=0;entryDx=0;entryDy=0;" edge="1" parent="1" source="Q1W1gEMNfPW142fc3Lqc-3" target="Q1W1gEMNfPW142fc3Lqc-8">
          <mxGeometry relative="1" as="geometry" />
        </mxCell>
        <mxCell id="Q1W1gEMNfPW142fc3Lqc-146" style="edgeStyle=orthogonalEdgeStyle;rounded=0;orthogonalLoop=1;jettySize=auto;html=1;exitX=0.25;exitY=1;exitDx=0;exitDy=0;entryX=0.5;entryY=0;entryDx=0;entryDy=0;" edge="1" parent="1" source="Q1W1gEMNfPW142fc3Lqc-3" target="Q1W1gEMNfPW142fc3Lqc-10">
          <mxGeometry relative="1" as="geometry">
            <Array as="points">
              <mxPoint x="482" y="230" />
              <mxPoint x="180" y="230" />
            </Array>
          </mxGeometry>
        </mxCell>
        <mxCell id="Q1W1gEMNfPW142fc3Lqc-3" value="&lt;font style=&quot;font-size: 11px;&quot;&gt;Hello, this is the emergency dispatcher. &lt;br&gt;What&#39;s the problem?&lt;/font&gt;" style="rounded=0;whiteSpace=wrap;html=1;fillColor=#dae8fc;strokeColor=#6c8ebf;" vertex="1" parent="1">
          <mxGeometry x="452" y="90" width="120" height="60" as="geometry" />
        </mxCell>
        <mxCell id="Q1W1gEMNfPW142fc3Lqc-15" style="edgeStyle=orthogonalEdgeStyle;rounded=0;orthogonalLoop=1;jettySize=auto;html=1;exitX=0.5;exitY=1;exitDx=0;exitDy=0;entryX=0.5;entryY=0;entryDx=0;entryDy=0;" edge="1" parent="1" source="Q1W1gEMNfPW142fc3Lqc-8" target="Q1W1gEMNfPW142fc3Lqc-14">
          <mxGeometry relative="1" as="geometry" />
        </mxCell>
        <mxCell id="Q1W1gEMNfPW142fc3Lqc-8" value="I have a pain in my stomach." style="rounded=1;whiteSpace=wrap;html=1;fillColor=#ffe6cc;strokeColor=#d79b00;" vertex="1" parent="1">
          <mxGeometry x="421" y="270" width="120" height="60" as="geometry" />
        </mxCell>
        <mxCell id="Q1W1gEMNfPW142fc3Lqc-52" style="edgeStyle=orthogonalEdgeStyle;rounded=0;orthogonalLoop=1;jettySize=auto;html=1;exitX=0.5;exitY=1;exitDx=0;exitDy=0;entryX=0.5;entryY=0;entryDx=0;entryDy=0;" edge="1" parent="1" source="Q1W1gEMNfPW142fc3Lqc-10" target="Q1W1gEMNfPW142fc3Lqc-29">
          <mxGeometry relative="1" as="geometry" />
        </mxCell>
        <mxCell id="Q1W1gEMNfPW142fc3Lqc-10" value="I need an ambulance" style="rounded=1;whiteSpace=wrap;html=1;fillColor=#ffe6cc;strokeColor=#d79b00;" vertex="1" parent="1">
          <mxGeometry x="120" y="270" width="120" height="60" as="geometry" />
        </mxCell>
        <mxCell id="Q1W1gEMNfPW142fc3Lqc-25" style="edgeStyle=orthogonalEdgeStyle;rounded=0;orthogonalLoop=1;jettySize=auto;html=1;exitX=0.5;exitY=1;exitDx=0;exitDy=0;entryX=0.5;entryY=0;entryDx=0;entryDy=0;" edge="1" parent="1" source="Q1W1gEMNfPW142fc3Lqc-14" target="Q1W1gEMNfPW142fc3Lqc-16">
          <mxGeometry relative="1" as="geometry" />
        </mxCell>
        <mxCell id="Q1W1gEMNfPW142fc3Lqc-14" value="&lt;span style=&quot;font-size: 11px;&quot;&gt;Ok, I&#39;m going to ask you some questions to better understand your problem.&lt;/span&gt;" style="rounded=0;whiteSpace=wrap;html=1;fillColor=#dae8fc;strokeColor=#6c8ebf;" vertex="1" parent="1">
          <mxGeometry x="411" y="370" width="140" height="80" as="geometry" />
        </mxCell>
        <mxCell id="Q1W1gEMNfPW142fc3Lqc-61" style="edgeStyle=orthogonalEdgeStyle;rounded=0;orthogonalLoop=1;jettySize=auto;html=1;exitX=0.5;exitY=1;exitDx=0;exitDy=0;entryX=0.5;entryY=0;entryDx=0;entryDy=0;" edge="1" parent="1" source="Q1W1gEMNfPW142fc3Lqc-16" target="Q1W1gEMNfPW142fc3Lqc-20">
          <mxGeometry relative="1" as="geometry" />
        </mxCell>
        <mxCell id="Q1W1gEMNfPW142fc3Lqc-139" style="edgeStyle=orthogonalEdgeStyle;rounded=0;orthogonalLoop=1;jettySize=auto;html=1;exitX=1;exitY=0.75;exitDx=0;exitDy=0;entryX=0.5;entryY=1;entryDx=0;entryDy=0;" edge="1" parent="1" source="Q1W1gEMNfPW142fc3Lqc-16" target="Q1W1gEMNfPW142fc3Lqc-131">
          <mxGeometry relative="1" as="geometry" />
        </mxCell>
        <mxCell id="Q1W1gEMNfPW142fc3Lqc-16" value="&lt;span style=&quot;font-size: 11px;&quot;&gt;When did your pain start?&lt;br&gt;....&lt;br&gt;Do you have any allergies?&lt;br&gt;&lt;/span&gt;" style="rounded=0;whiteSpace=wrap;html=1;fillColor=#dae8fc;strokeColor=#6c8ebf;" vertex="1" parent="1">
          <mxGeometry x="411" y="490" width="140" height="80" as="geometry" />
        </mxCell>
        <mxCell id="Q1W1gEMNfPW142fc3Lqc-28" style="edgeStyle=orthogonalEdgeStyle;rounded=0;orthogonalLoop=1;jettySize=auto;html=1;exitX=1;exitY=0.5;exitDx=0;exitDy=0;entryX=0;entryY=0.5;entryDx=0;entryDy=0;" edge="1" parent="1" source="Q1W1gEMNfPW142fc3Lqc-20" target="Q1W1gEMNfPW142fc3Lqc-21">
          <mxGeometry relative="1" as="geometry" />
        </mxCell>
        <mxCell id="Q1W1gEMNfPW142fc3Lqc-101" style="edgeStyle=orthogonalEdgeStyle;rounded=0;orthogonalLoop=1;jettySize=auto;html=1;exitX=0.5;exitY=1;exitDx=0;exitDy=0;entryX=0.5;entryY=0;entryDx=0;entryDy=0;" edge="1" parent="1" source="Q1W1gEMNfPW142fc3Lqc-20" target="Q1W1gEMNfPW142fc3Lqc-100">
          <mxGeometry relative="1" as="geometry" />
        </mxCell>
        <mxCell id="Q1W1gEMNfPW142fc3Lqc-20" value="It started yesterday.&lt;br&gt;...&lt;br&gt;I am allergic to nuts." style="rounded=1;whiteSpace=wrap;html=1;fillColor=#ffe6cc;strokeColor=#d79b00;" vertex="1" parent="1">
          <mxGeometry x="421" y="600" width="120" height="60" as="geometry" />
        </mxCell>
        <mxCell id="Q1W1gEMNfPW142fc3Lqc-26" style="edgeStyle=orthogonalEdgeStyle;rounded=0;orthogonalLoop=1;jettySize=auto;html=1;exitX=0.5;exitY=0;exitDx=0;exitDy=0;entryX=1;entryY=0.25;entryDx=0;entryDy=0;" edge="1" parent="1" source="Q1W1gEMNfPW142fc3Lqc-21" target="Q1W1gEMNfPW142fc3Lqc-16">
          <mxGeometry relative="1" as="geometry" />
        </mxCell>
        <mxCell id="Q1W1gEMNfPW142fc3Lqc-149" value="No" style="edgeLabel;html=1;align=center;verticalAlign=middle;resizable=0;points=[];" vertex="1" connectable="0" parent="Q1W1gEMNfPW142fc3Lqc-26">
          <mxGeometry x="-0.0206" y="-2" relative="1" as="geometry">
            <mxPoint as="offset" />
          </mxGeometry>
        </mxCell>
        <mxCell id="Q1W1gEMNfPW142fc3Lqc-103" style="edgeStyle=orthogonalEdgeStyle;rounded=0;orthogonalLoop=1;jettySize=auto;html=1;exitX=0.5;exitY=1;exitDx=0;exitDy=0;entryX=1;entryY=0.5;entryDx=0;entryDy=0;" edge="1" parent="1" source="Q1W1gEMNfPW142fc3Lqc-21" target="Q1W1gEMNfPW142fc3Lqc-100">
          <mxGeometry relative="1" as="geometry" />
        </mxCell>
        <mxCell id="Q1W1gEMNfPW142fc3Lqc-148" value="Yes" style="edgeLabel;html=1;align=center;verticalAlign=middle;resizable=0;points=[];" vertex="1" connectable="0" parent="Q1W1gEMNfPW142fc3Lqc-103">
          <mxGeometry x="-0.5336" y="-5" relative="1" as="geometry">
            <mxPoint as="offset" />
          </mxGeometry>
        </mxCell>
        <mxCell id="Q1W1gEMNfPW142fc3Lqc-21" value="Is form completed?" style="rhombus;whiteSpace=wrap;html=1;" vertex="1" parent="1">
          <mxGeometry x="591" y="600" width="180" height="60" as="geometry" />
        </mxCell>
        <mxCell id="Q1W1gEMNfPW142fc3Lqc-51" style="edgeStyle=orthogonalEdgeStyle;rounded=0;orthogonalLoop=1;jettySize=auto;html=1;exitX=0.5;exitY=1;exitDx=0;exitDy=0;entryX=0.5;entryY=0;entryDx=0;entryDy=0;" edge="1" parent="1" source="Q1W1gEMNfPW142fc3Lqc-29" target="Q1W1gEMNfPW142fc3Lqc-30">
          <mxGeometry relative="1" as="geometry" />
        </mxCell>
        <mxCell id="Q1W1gEMNfPW142fc3Lqc-29" value="&lt;span style=&quot;font-size: 11px;&quot;&gt;Ok, to send help, I need some contact information first.&lt;/span&gt;" style="rounded=0;whiteSpace=wrap;html=1;fillColor=#dae8fc;strokeColor=#6c8ebf;" vertex="1" parent="1">
          <mxGeometry x="110" y="370" width="140" height="80" as="geometry" />
        </mxCell>
        <mxCell id="Q1W1gEMNfPW142fc3Lqc-42" style="edgeStyle=orthogonalEdgeStyle;rounded=0;orthogonalLoop=1;jettySize=auto;html=1;exitX=0.5;exitY=1;exitDx=0;exitDy=0;entryX=0.5;entryY=0;entryDx=0;entryDy=0;" edge="1" parent="1" source="Q1W1gEMNfPW142fc3Lqc-30" target="Q1W1gEMNfPW142fc3Lqc-32">
          <mxGeometry relative="1" as="geometry" />
        </mxCell>
        <mxCell id="Q1W1gEMNfPW142fc3Lqc-30" value="&lt;span style=&quot;font-size: 11px;&quot;&gt;What is your address?&lt;br&gt;&lt;/span&gt;" style="rounded=0;whiteSpace=wrap;html=1;fillColor=#dae8fc;strokeColor=#6c8ebf;" vertex="1" parent="1">
          <mxGeometry x="110" y="490" width="140" height="44" as="geometry" />
        </mxCell>
        <mxCell id="Q1W1gEMNfPW142fc3Lqc-34" style="edgeStyle=orthogonalEdgeStyle;rounded=0;orthogonalLoop=1;jettySize=auto;html=1;exitX=0;exitY=0.5;exitDx=0;exitDy=0;entryX=1;entryY=0.5;entryDx=0;entryDy=0;" edge="1" parent="1" source="Q1W1gEMNfPW142fc3Lqc-32" target="Q1W1gEMNfPW142fc3Lqc-33">
          <mxGeometry relative="1" as="geometry" />
        </mxCell>
        <mxCell id="Q1W1gEMNfPW142fc3Lqc-46" style="edgeStyle=orthogonalEdgeStyle;rounded=0;orthogonalLoop=1;jettySize=auto;html=1;exitX=0.5;exitY=1;exitDx=0;exitDy=0;entryX=0.5;entryY=0;entryDx=0;entryDy=0;" edge="1" parent="1" source="Q1W1gEMNfPW142fc3Lqc-32" target="Q1W1gEMNfPW142fc3Lqc-36">
          <mxGeometry relative="1" as="geometry" />
        </mxCell>
        <mxCell id="Q1W1gEMNfPW142fc3Lqc-32" value="Via Brennero 1, Trento." style="rounded=1;whiteSpace=wrap;html=1;fillColor=#ffe6cc;strokeColor=#d79b00;" vertex="1" parent="1">
          <mxGeometry x="110" y="573" width="140" height="45" as="geometry" />
        </mxCell>
        <mxCell id="Q1W1gEMNfPW142fc3Lqc-38" style="edgeStyle=orthogonalEdgeStyle;rounded=0;orthogonalLoop=1;jettySize=auto;html=1;exitX=0.5;exitY=0;exitDx=0;exitDy=0;entryX=0.5;entryY=1;entryDx=0;entryDy=0;" edge="1" parent="1" source="Q1W1gEMNfPW142fc3Lqc-33" target="Q1W1gEMNfPW142fc3Lqc-37">
          <mxGeometry relative="1" as="geometry" />
        </mxCell>
        <mxCell id="Q1W1gEMNfPW142fc3Lqc-47" style="edgeStyle=orthogonalEdgeStyle;rounded=0;orthogonalLoop=1;jettySize=auto;html=1;exitX=0.5;exitY=1;exitDx=0;exitDy=0;entryX=0;entryY=0.5;entryDx=0;entryDy=0;" edge="1" parent="1" source="Q1W1gEMNfPW142fc3Lqc-33" target="Q1W1gEMNfPW142fc3Lqc-36">
          <mxGeometry relative="1" as="geometry" />
        </mxCell>
        <mxCell id="Q1W1gEMNfPW142fc3Lqc-58" value="Yes" style="edgeLabel;html=1;align=center;verticalAlign=middle;resizable=0;points=[];" vertex="1" connectable="0" parent="Q1W1gEMNfPW142fc3Lqc-47">
          <mxGeometry x="-0.865" y="-2" relative="1" as="geometry">
            <mxPoint as="offset" />
          </mxGeometry>
        </mxCell>
        <mxCell id="Q1W1gEMNfPW142fc3Lqc-59" value="" style="edgeStyle=orthogonalEdgeStyle;rounded=0;orthogonalLoop=1;jettySize=auto;html=1;" edge="1" parent="1" source="Q1W1gEMNfPW142fc3Lqc-33" target="Q1W1gEMNfPW142fc3Lqc-37">
          <mxGeometry relative="1" as="geometry" />
        </mxCell>
        <mxCell id="Q1W1gEMNfPW142fc3Lqc-60" value="No" style="edgeLabel;html=1;align=center;verticalAlign=middle;resizable=0;points=[];" vertex="1" connectable="0" parent="Q1W1gEMNfPW142fc3Lqc-59">
          <mxGeometry x="0.4077" relative="1" as="geometry">
            <mxPoint as="offset" />
          </mxGeometry>
        </mxCell>
        <mxCell id="Q1W1gEMNfPW142fc3Lqc-33" value="valid address?" style="rhombus;whiteSpace=wrap;html=1;" vertex="1" parent="1">
          <mxGeometry x="-130" y="571.25" width="180" height="48.5" as="geometry" />
        </mxCell>
        <mxCell id="Q1W1gEMNfPW142fc3Lqc-45" style="edgeStyle=orthogonalEdgeStyle;rounded=0;orthogonalLoop=1;jettySize=auto;html=1;exitX=0.5;exitY=1;exitDx=0;exitDy=0;entryX=0.5;entryY=0;entryDx=0;entryDy=0;" edge="1" parent="1" source="Q1W1gEMNfPW142fc3Lqc-36" target="Q1W1gEMNfPW142fc3Lqc-43">
          <mxGeometry relative="1" as="geometry" />
        </mxCell>
        <mxCell id="Q1W1gEMNfPW142fc3Lqc-36" value="&lt;span style=&quot;font-size: 11px;&quot;&gt;And what&#39;s your phone number?&lt;br&gt;&lt;/span&gt;" style="rounded=0;whiteSpace=wrap;html=1;fillColor=#dae8fc;strokeColor=#6c8ebf;" vertex="1" parent="1">
          <mxGeometry x="110" y="644" width="140" height="44" as="geometry" />
        </mxCell>
        <mxCell id="Q1W1gEMNfPW142fc3Lqc-40" style="edgeStyle=orthogonalEdgeStyle;rounded=0;orthogonalLoop=1;jettySize=auto;html=1;exitX=1;exitY=0.5;exitDx=0;exitDy=0;entryX=0;entryY=0.5;entryDx=0;entryDy=0;" edge="1" parent="1" source="Q1W1gEMNfPW142fc3Lqc-37" target="Q1W1gEMNfPW142fc3Lqc-30">
          <mxGeometry relative="1" as="geometry" />
        </mxCell>
        <mxCell id="Q1W1gEMNfPW142fc3Lqc-41" value="No" style="edgeLabel;html=1;align=center;verticalAlign=middle;resizable=0;points=[];" vertex="1" connectable="0" parent="Q1W1gEMNfPW142fc3Lqc-40">
          <mxGeometry x="-0.097" y="-2" relative="1" as="geometry">
            <mxPoint as="offset" />
          </mxGeometry>
        </mxCell>
        <mxCell id="Q1W1gEMNfPW142fc3Lqc-49" style="edgeStyle=orthogonalEdgeStyle;rounded=0;orthogonalLoop=1;jettySize=auto;html=1;exitX=0;exitY=0.5;exitDx=0;exitDy=0;entryX=0;entryY=0.5;entryDx=0;entryDy=0;" edge="1" parent="1" source="Q1W1gEMNfPW142fc3Lqc-37" target="Q1W1gEMNfPW142fc3Lqc-36">
          <mxGeometry relative="1" as="geometry" />
        </mxCell>
        <mxCell id="Q1W1gEMNfPW142fc3Lqc-50" value="Yes" style="edgeLabel;html=1;align=center;verticalAlign=middle;resizable=0;points=[];" vertex="1" connectable="0" parent="Q1W1gEMNfPW142fc3Lqc-49">
          <mxGeometry x="-0.7872" relative="1" as="geometry">
            <mxPoint y="-27" as="offset" />
          </mxGeometry>
        </mxCell>
        <mxCell id="Q1W1gEMNfPW142fc3Lqc-37" value="&lt;font style=&quot;font-size: 10px;&quot;&gt;has the user repeated &lt;br&gt;the address over 2 times?&lt;/font&gt;" style="rhombus;whiteSpace=wrap;html=1;" vertex="1" parent="1">
          <mxGeometry x="-130" y="482" width="180" height="60" as="geometry" />
        </mxCell>
        <mxCell id="Q1W1gEMNfPW142fc3Lqc-55" style="edgeStyle=orthogonalEdgeStyle;rounded=0;orthogonalLoop=1;jettySize=auto;html=1;exitX=0.5;exitY=1;exitDx=0;exitDy=0;entryX=0.5;entryY=0;entryDx=0;entryDy=0;" edge="1" parent="1" source="Q1W1gEMNfPW142fc3Lqc-43" target="Q1W1gEMNfPW142fc3Lqc-53">
          <mxGeometry relative="1" as="geometry" />
        </mxCell>
        <mxCell id="Q1W1gEMNfPW142fc3Lqc-43" value="It&#39;s 3333333333." style="rounded=1;whiteSpace=wrap;html=1;fillColor=#ffe6cc;strokeColor=#d79b00;" vertex="1" parent="1">
          <mxGeometry x="110" y="714" width="140" height="45" as="geometry" />
        </mxCell>
        <mxCell id="Q1W1gEMNfPW142fc3Lqc-56" style="edgeStyle=orthogonalEdgeStyle;rounded=0;orthogonalLoop=1;jettySize=auto;html=1;exitX=0.5;exitY=1;exitDx=0;exitDy=0;entryX=0.5;entryY=0;entryDx=0;entryDy=0;" edge="1" parent="1" source="Q1W1gEMNfPW142fc3Lqc-53" target="Q1W1gEMNfPW142fc3Lqc-54">
          <mxGeometry relative="1" as="geometry" />
        </mxCell>
        <mxCell id="Q1W1gEMNfPW142fc3Lqc-53" value="&lt;span style=&quot;font-size: 11px;&quot;&gt;Can you repeat for confirmation?&lt;br&gt;&lt;/span&gt;" style="rounded=0;whiteSpace=wrap;html=1;fillColor=#dae8fc;strokeColor=#6c8ebf;" vertex="1" parent="1">
          <mxGeometry x="110" y="781" width="140" height="44" as="geometry" />
        </mxCell>
        <mxCell id="Q1W1gEMNfPW142fc3Lqc-75" style="edgeStyle=orthogonalEdgeStyle;rounded=0;orthogonalLoop=1;jettySize=auto;html=1;exitX=0.5;exitY=1;exitDx=0;exitDy=0;entryX=0.5;entryY=0;entryDx=0;entryDy=0;" edge="1" parent="1" source="Q1W1gEMNfPW142fc3Lqc-54" target="Q1W1gEMNfPW142fc3Lqc-69">
          <mxGeometry relative="1" as="geometry" />
        </mxCell>
        <mxCell id="Q1W1gEMNfPW142fc3Lqc-54" value="sure, 3333333333." style="rounded=1;whiteSpace=wrap;html=1;fillColor=#ffe6cc;strokeColor=#d79b00;" vertex="1" parent="1">
          <mxGeometry x="110" y="851" width="140" height="45" as="geometry" />
        </mxCell>
        <mxCell id="Q1W1gEMNfPW142fc3Lqc-88" style="edgeStyle=orthogonalEdgeStyle;rounded=0;orthogonalLoop=1;jettySize=auto;html=1;exitX=0.5;exitY=1;exitDx=0;exitDy=0;entryX=0.5;entryY=0;entryDx=0;entryDy=0;" edge="1" parent="1" source="Q1W1gEMNfPW142fc3Lqc-68" target="Q1W1gEMNfPW142fc3Lqc-82">
          <mxGeometry relative="1" as="geometry" />
        </mxCell>
        <mxCell id="Q1W1gEMNfPW142fc3Lqc-89" value="No" style="edgeLabel;html=1;align=center;verticalAlign=middle;resizable=0;points=[];" vertex="1" connectable="0" parent="Q1W1gEMNfPW142fc3Lqc-88">
          <mxGeometry x="-0.2059" y="2" relative="1" as="geometry">
            <mxPoint as="offset" />
          </mxGeometry>
        </mxCell>
        <mxCell id="Q1W1gEMNfPW142fc3Lqc-97" style="edgeStyle=orthogonalEdgeStyle;rounded=0;orthogonalLoop=1;jettySize=auto;html=1;exitX=1;exitY=0.5;exitDx=0;exitDy=0;entryX=0;entryY=0.5;entryDx=0;entryDy=0;" edge="1" parent="1" source="Q1W1gEMNfPW142fc3Lqc-68" target="Q1W1gEMNfPW142fc3Lqc-108">
          <mxGeometry relative="1" as="geometry" />
        </mxCell>
        <mxCell id="Q1W1gEMNfPW142fc3Lqc-109" value="Yes" style="edgeLabel;html=1;align=center;verticalAlign=middle;resizable=0;points=[];" vertex="1" connectable="0" parent="Q1W1gEMNfPW142fc3Lqc-97">
          <mxGeometry x="-0.6626" y="-1" relative="1" as="geometry">
            <mxPoint as="offset" />
          </mxGeometry>
        </mxCell>
        <mxCell id="Q1W1gEMNfPW142fc3Lqc-68" value="&lt;br&gt;address &amp;amp; phone number provided?" style="rhombus;whiteSpace=wrap;html=1;" vertex="1" parent="1">
          <mxGeometry x="391" y="788.5" width="180" height="76" as="geometry" />
        </mxCell>
        <mxCell id="Q1W1gEMNfPW142fc3Lqc-76" style="edgeStyle=orthogonalEdgeStyle;rounded=0;orthogonalLoop=1;jettySize=auto;html=1;exitX=1;exitY=0.5;exitDx=0;exitDy=0;entryX=0;entryY=0.5;entryDx=0;entryDy=0;" edge="1" parent="1" source="Q1W1gEMNfPW142fc3Lqc-69" target="Q1W1gEMNfPW142fc3Lqc-14">
          <mxGeometry relative="1" as="geometry">
            <Array as="points">
              <mxPoint x="360" y="1002" />
              <mxPoint x="360" y="410" />
            </Array>
          </mxGeometry>
        </mxCell>
        <mxCell id="Q1W1gEMNfPW142fc3Lqc-77" value="No" style="edgeLabel;html=1;align=center;verticalAlign=middle;resizable=0;points=[];" vertex="1" connectable="0" parent="Q1W1gEMNfPW142fc3Lqc-76">
          <mxGeometry x="-0.9514" y="3" relative="1" as="geometry">
            <mxPoint as="offset" />
          </mxGeometry>
        </mxCell>
        <mxCell id="Q1W1gEMNfPW142fc3Lqc-115" style="edgeStyle=orthogonalEdgeStyle;rounded=0;orthogonalLoop=1;jettySize=auto;html=1;exitX=0.5;exitY=1;exitDx=0;exitDy=0;entryX=0;entryY=0.5;entryDx=0;entryDy=0;" edge="1" parent="1" source="Q1W1gEMNfPW142fc3Lqc-69" target="Q1W1gEMNfPW142fc3Lqc-95">
          <mxGeometry relative="1" as="geometry" />
        </mxCell>
        <mxCell id="Q1W1gEMNfPW142fc3Lqc-116" value="Yes" style="edgeLabel;html=1;align=center;verticalAlign=middle;resizable=0;points=[];" vertex="1" connectable="0" parent="Q1W1gEMNfPW142fc3Lqc-115">
          <mxGeometry x="-0.8665" y="1" relative="1" as="geometry">
            <mxPoint y="-1" as="offset" />
          </mxGeometry>
        </mxCell>
        <mxCell id="Q1W1gEMNfPW142fc3Lqc-69" value="Emergency information provided?" style="rhombus;whiteSpace=wrap;html=1;" vertex="1" parent="1">
          <mxGeometry x="90" y="964" width="180" height="76" as="geometry" />
        </mxCell>
        <mxCell id="Q1W1gEMNfPW142fc3Lqc-79" value="Greeting" style="text;html=1;strokeColor=none;fillColor=none;align=left;verticalAlign=middle;whiteSpace=wrap;rounded=0;fontSize=16;" vertex="1" parent="1">
          <mxGeometry x="270" y="30" width="60" height="30" as="geometry" />
        </mxCell>
        <mxCell id="Q1W1gEMNfPW142fc3Lqc-80" value="FIlling in contact information" style="text;html=1;strokeColor=none;fillColor=none;align=left;verticalAlign=middle;whiteSpace=wrap;rounded=0;fontSize=16;" vertex="1" parent="1">
          <mxGeometry x="-170" y="320" width="220" height="30" as="geometry" />
        </mxCell>
        <mxCell id="Q1W1gEMNfPW142fc3Lqc-81" value="FIlling in emergency information" style="text;html=1;strokeColor=none;fillColor=none;align=right;verticalAlign=middle;whiteSpace=wrap;rounded=0;fontSize=16;" vertex="1" parent="1">
          <mxGeometry x="591" y="310" width="220" height="30" as="geometry" />
        </mxCell>
        <mxCell id="Q1W1gEMNfPW142fc3Lqc-87" style="edgeStyle=orthogonalEdgeStyle;rounded=0;orthogonalLoop=1;jettySize=auto;html=1;exitX=0.5;exitY=1;exitDx=0;exitDy=0;entryX=0.5;entryY=0;entryDx=0;entryDy=0;" edge="1" parent="1" source="Q1W1gEMNfPW142fc3Lqc-82" target="Q1W1gEMNfPW142fc3Lqc-85">
          <mxGeometry relative="1" as="geometry" />
        </mxCell>
        <mxCell id="Q1W1gEMNfPW142fc3Lqc-106" style="edgeStyle=orthogonalEdgeStyle;rounded=0;orthogonalLoop=1;jettySize=auto;html=1;exitX=1;exitY=0.5;exitDx=0;exitDy=0;entryX=0;entryY=0.5;entryDx=0;entryDy=0;" edge="1" parent="1" source="Q1W1gEMNfPW142fc3Lqc-82" target="Q1W1gEMNfPW142fc3Lqc-105">
          <mxGeometry relative="1" as="geometry" />
        </mxCell>
        <mxCell id="Q1W1gEMNfPW142fc3Lqc-138" style="edgeStyle=orthogonalEdgeStyle;rounded=0;orthogonalLoop=1;jettySize=auto;html=1;exitX=1;exitY=0.25;exitDx=0;exitDy=0;entryX=0.5;entryY=1;entryDx=0;entryDy=0;" edge="1" parent="1">
          <mxGeometry relative="1" as="geometry">
            <mxPoint x="512" y="935.25" as="sourcePoint" />
            <mxPoint x="711.0000000000005" y="150" as="targetPoint" />
            <Array as="points">
              <mxPoint x="512" y="890" />
              <mxPoint x="711" y="890" />
            </Array>
          </mxGeometry>
        </mxCell>
        <mxCell id="Q1W1gEMNfPW142fc3Lqc-82" value="Do you want us to send an ambulance?&amp;nbsp;" style="rounded=0;whiteSpace=wrap;html=1;fillColor=#dae8fc;strokeColor=#6c8ebf;" vertex="1" parent="1">
          <mxGeometry x="411" y="915.5" width="140" height="79" as="geometry" />
        </mxCell>
        <mxCell id="Q1W1gEMNfPW142fc3Lqc-86" style="edgeStyle=orthogonalEdgeStyle;rounded=0;orthogonalLoop=1;jettySize=auto;html=1;exitX=0;exitY=0.5;exitDx=0;exitDy=0;entryX=1;entryY=0.5;entryDx=0;entryDy=0;" edge="1" parent="1" source="Q1W1gEMNfPW142fc3Lqc-85" target="Q1W1gEMNfPW142fc3Lqc-29">
          <mxGeometry relative="1" as="geometry">
            <Array as="points">
              <mxPoint x="320" y="1057" />
              <mxPoint x="320" y="410" />
            </Array>
          </mxGeometry>
        </mxCell>
        <mxCell id="Q1W1gEMNfPW142fc3Lqc-85" value="Yes" style="rounded=1;whiteSpace=wrap;html=1;fillColor=#ffe6cc;strokeColor=#d79b00;" vertex="1" parent="1">
          <mxGeometry x="421" y="1030.5" width="120" height="42" as="geometry" />
        </mxCell>
        <mxCell id="Q1W1gEMNfPW142fc3Lqc-117" style="edgeStyle=orthogonalEdgeStyle;rounded=0;orthogonalLoop=1;jettySize=auto;html=1;exitX=1;exitY=0.5;exitDx=0;exitDy=0;entryX=0;entryY=0.5;entryDx=0;entryDy=0;" edge="1" parent="1" source="Q1W1gEMNfPW142fc3Lqc-95" target="Q1W1gEMNfPW142fc3Lqc-96">
          <mxGeometry relative="1" as="geometry">
            <Array as="points">
              <mxPoint x="730" y="1163" />
              <mxPoint x="730" y="955" />
            </Array>
          </mxGeometry>
        </mxCell>
        <mxCell id="Q1W1gEMNfPW142fc3Lqc-95" value="Ok, paramedics are on the way." style="rounded=0;whiteSpace=wrap;html=1;fillColor=#dae8fc;strokeColor=#6c8ebf;" vertex="1" parent="1">
          <mxGeometry x="411" y="1123.5" width="140" height="79" as="geometry" />
        </mxCell>
        <mxCell id="Q1W1gEMNfPW142fc3Lqc-112" style="edgeStyle=orthogonalEdgeStyle;rounded=0;orthogonalLoop=1;jettySize=auto;html=1;exitX=1;exitY=0.5;exitDx=0;exitDy=0;entryX=0;entryY=0.5;entryDx=0;entryDy=0;" edge="1" parent="1" source="Q1W1gEMNfPW142fc3Lqc-96" target="Q1W1gEMNfPW142fc3Lqc-111">
          <mxGeometry relative="1" as="geometry" />
        </mxCell>
        <mxCell id="Q1W1gEMNfPW142fc3Lqc-114" style="edgeStyle=orthogonalEdgeStyle;rounded=0;orthogonalLoop=1;jettySize=auto;html=1;exitX=0.5;exitY=1;exitDx=0;exitDy=0;entryX=0.5;entryY=0;entryDx=0;entryDy=0;" edge="1" parent="1" source="Q1W1gEMNfPW142fc3Lqc-96" target="Q1W1gEMNfPW142fc3Lqc-113">
          <mxGeometry relative="1" as="geometry" />
        </mxCell>
        <mxCell id="Q1W1gEMNfPW142fc3Lqc-140" style="edgeStyle=orthogonalEdgeStyle;rounded=0;orthogonalLoop=1;jettySize=auto;html=1;exitX=0.25;exitY=0;exitDx=0;exitDy=0;entryX=0.75;entryY=1;entryDx=0;entryDy=0;" edge="1" parent="1">
          <mxGeometry relative="1" as="geometry">
            <mxPoint x="806.0000000000005" y="915.79" as="sourcePoint" />
            <mxPoint x="791.0000000000005" y="150" as="targetPoint" />
            <Array as="points">
              <mxPoint x="791" y="916" />
            </Array>
          </mxGeometry>
        </mxCell>
        <mxCell id="Q1W1gEMNfPW142fc3Lqc-96" value="Do you have any questions?" style="rounded=0;whiteSpace=wrap;html=1;fillColor=#dae8fc;strokeColor=#6c8ebf;" vertex="1" parent="1">
          <mxGeometry x="760" y="915.79" width="140" height="79" as="geometry" />
        </mxCell>
        <mxCell id="Q1W1gEMNfPW142fc3Lqc-102" style="edgeStyle=orthogonalEdgeStyle;rounded=0;orthogonalLoop=1;jettySize=auto;html=1;exitX=0.5;exitY=1;exitDx=0;exitDy=0;entryX=0.5;entryY=0;entryDx=0;entryDy=0;" edge="1" parent="1" source="Q1W1gEMNfPW142fc3Lqc-100" target="Q1W1gEMNfPW142fc3Lqc-68">
          <mxGeometry relative="1" as="geometry" />
        </mxCell>
        <mxCell id="Q1W1gEMNfPW142fc3Lqc-100" value="Ok, I have collected all the information.&amp;nbsp;" style="rounded=0;whiteSpace=wrap;html=1;fillColor=#dae8fc;strokeColor=#6c8ebf;" vertex="1" parent="1">
          <mxGeometry x="411" y="710" width="140" height="53" as="geometry" />
        </mxCell>
        <mxCell id="Q1W1gEMNfPW142fc3Lqc-107" style="edgeStyle=orthogonalEdgeStyle;rounded=0;orthogonalLoop=1;jettySize=auto;html=1;exitX=1;exitY=0.5;exitDx=0;exitDy=0;entryX=0;entryY=0.5;entryDx=0;entryDy=0;" edge="1" parent="1" source="Q1W1gEMNfPW142fc3Lqc-105" target="Q1W1gEMNfPW142fc3Lqc-96">
          <mxGeometry relative="1" as="geometry" />
        </mxCell>
        <mxCell id="Q1W1gEMNfPW142fc3Lqc-105" value="No" style="rounded=1;whiteSpace=wrap;html=1;fillColor=#ffe6cc;strokeColor=#d79b00;" vertex="1" parent="1">
          <mxGeometry x="591" y="934" width="120" height="42" as="geometry" />
        </mxCell>
        <mxCell id="Q1W1gEMNfPW142fc3Lqc-141" style="edgeStyle=orthogonalEdgeStyle;rounded=0;orthogonalLoop=1;jettySize=auto;html=1;exitX=0.25;exitY=1;exitDx=0;exitDy=0;entryX=0.75;entryY=0;entryDx=0;entryDy=0;" edge="1" parent="1" source="Q1W1gEMNfPW142fc3Lqc-108" target="Q1W1gEMNfPW142fc3Lqc-96">
          <mxGeometry relative="1" as="geometry" />
        </mxCell>
        <mxCell id="Q1W1gEMNfPW142fc3Lqc-108" value="Paramedics are on the way." style="rounded=0;whiteSpace=wrap;html=1;fillColor=#dae8fc;strokeColor=#6c8ebf;" vertex="1" parent="1">
          <mxGeometry x="819" y="799.5" width="183" height="54" as="geometry" />
        </mxCell>
        <mxCell id="Q1W1gEMNfPW142fc3Lqc-123" style="edgeStyle=orthogonalEdgeStyle;rounded=0;orthogonalLoop=1;jettySize=auto;html=1;exitX=1;exitY=0.5;exitDx=0;exitDy=0;entryX=0;entryY=0.5;entryDx=0;entryDy=0;" edge="1" parent="1" source="Q1W1gEMNfPW142fc3Lqc-111" target="Q1W1gEMNfPW142fc3Lqc-122">
          <mxGeometry relative="1" as="geometry" />
        </mxCell>
        <mxCell id="Q1W1gEMNfPW142fc3Lqc-111" value="Yes" style="rounded=1;whiteSpace=wrap;html=1;fillColor=#ffe6cc;strokeColor=#d79b00;" vertex="1" parent="1">
          <mxGeometry x="990" y="934" width="120" height="42" as="geometry" />
        </mxCell>
        <mxCell id="Q1W1gEMNfPW142fc3Lqc-119" style="edgeStyle=orthogonalEdgeStyle;rounded=0;orthogonalLoop=1;jettySize=auto;html=1;exitX=0.5;exitY=1;exitDx=0;exitDy=0;entryX=0.5;entryY=0;entryDx=0;entryDy=0;" edge="1" parent="1" source="Q1W1gEMNfPW142fc3Lqc-113" target="Q1W1gEMNfPW142fc3Lqc-118">
          <mxGeometry relative="1" as="geometry" />
        </mxCell>
        <mxCell id="Q1W1gEMNfPW142fc3Lqc-113" value="No" style="rounded=1;whiteSpace=wrap;html=1;fillColor=#ffe6cc;strokeColor=#d79b00;" vertex="1" parent="1">
          <mxGeometry x="771" y="1030.5" width="120" height="42" as="geometry" />
        </mxCell>
        <mxCell id="Q1W1gEMNfPW142fc3Lqc-118" value="End" style="ellipse;whiteSpace=wrap;html=1;fillColor=#f8cecc;strokeColor=#b85450;" vertex="1" parent="1">
          <mxGeometry x="771" y="1122.5" width="120" height="80" as="geometry" />
        </mxCell>
        <mxCell id="Q1W1gEMNfPW142fc3Lqc-125" style="edgeStyle=orthogonalEdgeStyle;rounded=0;orthogonalLoop=1;jettySize=auto;html=1;exitX=0.5;exitY=1;exitDx=0;exitDy=0;entryX=0.5;entryY=0;entryDx=0;entryDy=0;" edge="1" parent="1" source="Q1W1gEMNfPW142fc3Lqc-122" target="Q1W1gEMNfPW142fc3Lqc-124">
          <mxGeometry relative="1" as="geometry" />
        </mxCell>
        <mxCell id="Q1W1gEMNfPW142fc3Lqc-122" value="What is the cause?&lt;br&gt;....&lt;br&gt;How long is it going to take to heal?&lt;br&gt;.....&lt;br&gt;How long before help arrives?" style="rounded=1;whiteSpace=wrap;html=1;fillColor=#ffe6cc;strokeColor=#d79b00;" vertex="1" parent="1">
          <mxGeometry x="1168.5" y="897.29" width="240" height="116" as="geometry" />
        </mxCell>
        <mxCell id="Q1W1gEMNfPW142fc3Lqc-128" style="edgeStyle=orthogonalEdgeStyle;rounded=0;orthogonalLoop=1;jettySize=auto;html=1;exitX=0;exitY=0.5;exitDx=0;exitDy=0;entryX=1;entryY=0.75;entryDx=0;entryDy=0;" edge="1" parent="1" source="Q1W1gEMNfPW142fc3Lqc-124" target="Q1W1gEMNfPW142fc3Lqc-96">
          <mxGeometry relative="1" as="geometry">
            <mxPoint x="931" y="960" as="targetPoint" />
            <Array as="points">
              <mxPoint x="950" y="1163" />
              <mxPoint x="950" y="975" />
            </Array>
          </mxGeometry>
        </mxCell>
        <mxCell id="Q1W1gEMNfPW142fc3Lqc-124" value="Stomach pain can be caused...&lt;br&gt;...&lt;br&gt;In case of infection, it could take weeks....&lt;br&gt;...&lt;br&gt;Help is on the way. It may take up to 15 minutes." style="rounded=0;whiteSpace=wrap;html=1;fillColor=#dae8fc;strokeColor=#6c8ebf;" vertex="1" parent="1">
          <mxGeometry x="1197" y="1097.5" width="183" height="130" as="geometry" />
        </mxCell>
        <mxCell id="Q1W1gEMNfPW142fc3Lqc-130" value="Asking pain related questions" style="text;html=1;strokeColor=none;fillColor=none;align=right;verticalAlign=middle;whiteSpace=wrap;rounded=0;fontSize=16;" vertex="1" parent="1">
          <mxGeometry x="1208.5" y="839.5" width="220" height="30" as="geometry" />
        </mxCell>
        <mxCell id="Q1W1gEMNfPW142fc3Lqc-133" style="edgeStyle=orthogonalEdgeStyle;rounded=0;orthogonalLoop=1;jettySize=auto;html=1;exitX=1;exitY=0.5;exitDx=0;exitDy=0;entryX=0;entryY=0.5;entryDx=0;entryDy=0;" edge="1" parent="1" source="Q1W1gEMNfPW142fc3Lqc-131" target="Q1W1gEMNfPW142fc3Lqc-132">
          <mxGeometry relative="1" as="geometry" />
        </mxCell>
        <mxCell id="Q1W1gEMNfPW142fc3Lqc-131" value="I want to talk with a human operator." style="rounded=1;whiteSpace=wrap;html=1;fillColor=#ffe6cc;strokeColor=#d79b00;" vertex="1" parent="1">
          <mxGeometry x="690" y="90" width="120" height="60" as="geometry" />
        </mxCell>
        <mxCell id="Q1W1gEMNfPW142fc3Lqc-143" style="edgeStyle=orthogonalEdgeStyle;rounded=0;orthogonalLoop=1;jettySize=auto;html=1;exitX=1;exitY=0.5;exitDx=0;exitDy=0;entryX=0;entryY=0.5;entryDx=0;entryDy=0;" edge="1" parent="1" source="Q1W1gEMNfPW142fc3Lqc-132" target="Q1W1gEMNfPW142fc3Lqc-142">
          <mxGeometry relative="1" as="geometry" />
        </mxCell>
        <mxCell id="Q1W1gEMNfPW142fc3Lqc-132" value="&lt;span style=&quot;font-size: 11px;&quot;&gt;Sure, I&#39;m transferring you to a human agent...&lt;/span&gt;" style="rounded=0;whiteSpace=wrap;html=1;fillColor=#dae8fc;strokeColor=#6c8ebf;" vertex="1" parent="1">
          <mxGeometry x="860" y="90" width="140" height="60" as="geometry" />
        </mxCell>
        <mxCell id="Q1W1gEMNfPW142fc3Lqc-135" value="Requesting to talk with a person" style="text;html=1;strokeColor=none;fillColor=none;align=left;verticalAlign=middle;whiteSpace=wrap;rounded=0;fontSize=16;" vertex="1" parent="1">
          <mxGeometry x="678.5" y="30" width="251.5" height="30" as="geometry" />
        </mxCell>
        <mxCell id="Q1W1gEMNfPW142fc3Lqc-142" value="End" style="ellipse;whiteSpace=wrap;html=1;fillColor=#f8cecc;strokeColor=#b85450;" vertex="1" parent="1">
          <mxGeometry x="1070" y="80" width="120" height="80" as="geometry" />
        </mxCell>
      </root>
    </mxGraphModel>
  </diagram>
</mxfile>
